<svg width="20" height="21" viewBox="0 0 20 21" fill="none" xmlns="http://www.w3.org/2000/svg">
<path d="M20 10.6665C20 5.14365 15.5229 0.666504 10 0.666504C4.47715 0.666504 0 5.14365 0 10.6665C0 15.6577 3.65684 19.7948 8.4375 20.545V13.5571H5.89844V10.6665H8.4375V8.46338C8.4375 5.95713 9.93047 4.57275 12.2146 4.57275C13.3084 4.57275 14.4531 4.76807 14.4531 4.76807V7.229H13.1922C11.95 7.229 11.5625 7.9999 11.5625 8.7915V10.6665H14.3359L13.8926 13.5571H11.5625V20.545C16.3432 19.7948 20 15.6577 20 10.6665Z" fill="#272D37"/>
<path d="M13.8926 13.5571L14.3359 10.6665H11.5625V8.7915C11.5625 8.00068 11.95 7.229 13.1922 7.229H14.4531V4.76807C14.4531 4.76807 13.3088 4.57275 12.2146 4.57275C9.93047 4.57275 8.4375 5.95713 8.4375 8.46338V10.6665H5.89844V13.5571H8.4375V20.545C9.47287 20.707 10.5271 20.707 11.5625 20.545V13.5571H13.8926Z" fill="white"/>
</svg>
