<svg width="25" height="24" viewBox="0 0 25 24" fill="none" xmlns="http://www.w3.org/2000/svg">
<g clip-path="url(#clip0_2657_20310)">
<path d="M24.2628 12.2763C24.2628 11.4605 24.1966 10.6404 24.0555 9.83789H12.7368V14.4589H19.2185C18.9495 15.9492 18.0853 17.2676 16.8198 18.1054V21.1037H20.6868C22.9576 19.0137 24.2628 15.9272 24.2628 12.2763Z" fill="#272D37"/>
<path d="M12.7373 24.0003C15.9737 24.0003 18.7031 22.9377 20.6917 21.1034L16.8247 18.1051C15.7488 18.837 14.3599 19.2515 12.7417 19.2515C9.61105 19.2515 6.95663 17.1394 6.00421 14.2998H2.01376V17.3907C4.05088 21.4429 8.20006 24.0003 12.7373 24.0003Z" fill="#272D37"/>
<path d="M5.99972 14.3002C5.49706 12.8099 5.49706 11.196 5.99972 9.70569V6.61475H2.01368C0.311682 10.0055 0.311682 14.0004 2.01368 17.3912L5.99972 14.3002Z" fill="#272D37"/>
<path d="M12.7373 4.74966C14.4481 4.7232 16.1016 5.36697 17.3406 6.54867L20.7667 3.12262C18.5973 1.0855 15.718 -0.034466 12.7373 0.000808666C8.20009 0.000808666 4.05091 2.55822 2.01379 6.61481L5.99983 9.70575C6.94784 6.86173 9.60667 4.74966 12.7373 4.74966Z" fill="#272D37"/>
</g>
<defs>
<clipPath id="clip0_2657_20310">
<rect width="24" height="24" fill="white" transform="translate(0.5)"/>
</clipPath>
</defs>
</svg>
