<svg width="25" height="24" viewBox="0 0 25 24" fill="none" xmlns="http://www.w3.org/2000/svg">
<path d="M17.3503 0H7.64973C3.70735 0 0.5 3.20735 0.5 7.14973V16.8503C0.5 20.7926 3.70735 24 7.64973 24H17.3503C21.2926 24 24.5 20.7926 24.5 16.8503V7.14973C24.5 3.20735 21.2926 0 17.3503 0ZM22.0856 16.8503C22.0856 19.4655 19.9655 21.5856 17.3503 21.5856H7.64973C5.0345 21.5856 2.9144 19.4655 2.9144 16.8503V7.14973C2.9144 4.53446 5.0345 2.4144 7.64973 2.4144H17.3503C19.9655 2.4144 22.0856 4.53446 22.0856 7.14973V16.8503Z" fill="#272D37"/>
<path d="M12.5 5.79297C9.07729 5.79297 6.29272 8.57754 6.29272 12.0002C6.29272 15.4228 9.07729 18.2074 12.5 18.2074C15.9227 18.2074 18.7072 15.4229 18.7072 12.0002C18.7072 8.57749 15.9227 5.79297 12.5 5.79297ZM12.5 15.7931C10.4052 15.7931 8.70712 14.095 8.70712 12.0002C8.70712 9.90547 10.4053 8.20737 12.5 8.20737C14.5947 8.20737 16.2928 9.90547 16.2928 12.0002C16.2928 14.0949 14.5947 15.7931 12.5 15.7931Z" fill="#272D37"/>
<path d="M18.719 7.32673C19.5405 7.32673 20.2064 6.66083 20.2064 5.83939C20.2064 5.01796 19.5405 4.35205 18.719 4.35205C17.8976 4.35205 17.2317 5.01796 17.2317 5.83939C17.2317 6.66083 17.8976 7.32673 18.719 7.32673Z" fill="#272D37"/>
</svg>
