<svg width="20" height="21" viewBox="0 0 20 21" fill="none" xmlns="http://www.w3.org/2000/svg">
<path d="M-9.15527e-05 2.09916C-9.15527e-05 1.30838 0.66194 0.666504 1.47803 0.666504H18.5218C19.3382 0.666504 19.9999 1.30838 19.9999 2.09916V19.2341C19.9999 20.0251 19.3382 20.6665 18.5218 20.6665H1.47803C0.662018 20.6665 -9.15527e-05 20.0252 -9.15527e-05 19.2343V2.09893V2.09916Z" fill="#272D37"/>
<path d="M6.0777 17.4041V8.40004H3.08488V17.4041H6.07801H6.0777ZM4.58192 7.1709C5.62535 7.1709 6.27496 6.47949 6.27496 5.61543C6.25543 4.73168 5.62535 4.05957 4.60176 4.05957C3.57746 4.05957 2.90848 4.73168 2.90848 5.61535C2.90848 6.47941 3.55785 7.17082 4.56231 7.17082H4.58168L4.58192 7.1709ZM7.73426 17.4041H10.7268V12.3764C10.7268 12.1076 10.7464 11.8382 10.8254 11.6462C11.0417 11.1083 11.5341 10.5515 12.3611 10.5515C13.4437 10.5515 13.8771 11.3771 13.8771 12.5877V17.4041H16.8696V12.2414C16.8696 9.4759 15.3933 8.18894 13.4243 8.18894C11.81 8.18894 11.1011 9.09121 10.7071 9.70574H10.7271V8.40035H7.73441C7.77348 9.24504 7.73418 17.4044 7.73418 17.4044L7.73426 17.4041Z" fill="white"/>
</svg>
