<svg width="128" height="32" viewBox="0 0 128 32" fill="none" xmlns="http://www.w3.org/2000/svg">
<path d="M33.0568 9.25315H35.8961V20.0713H41.1585V22.513H33.0568V9.25315Z" fill="#2E343F"/>
<path d="M42.4367 20.2608C42.002 19.4598 41.7831 18.5595 41.8016 17.6483C41.7831 16.7371 42.002 15.8368 42.4367 15.0358C42.85 14.2874 43.4759 13.6782 44.2353 13.2853C45.0768 12.8796 45.9989 12.6689 46.9331 12.6689C47.8673 12.6689 48.7895 12.8796 49.631 13.2853C50.3892 13.6798 51.0147 14.2885 51.4296 15.0358C51.8622 15.8375 52.0801 16.7375 52.062 17.6483C52.0823 18.5627 51.8643 19.4667 51.4296 20.2715C51.0119 21.0139 50.3869 21.6185 49.631 22.0113C48.7895 22.417 47.8673 22.6277 46.9331 22.6277C45.9989 22.6277 45.0768 22.417 44.2353 22.0113C43.4759 21.6184 42.85 21.0092 42.4367 20.2608ZM49.3562 17.6483C49.3862 16.9151 49.1502 16.1958 48.6917 15.6229C48.4759 15.3702 48.2054 15.17 47.9007 15.0373C47.596 14.9046 47.2652 14.843 46.9331 14.857C46.6014 14.8437 46.271 14.9068 45.9674 15.0414C45.6639 15.1761 45.3954 15.3787 45.1826 15.6336C44.7268 16.2074 44.4945 16.927 44.5288 17.659C44.4945 18.391 44.7268 19.1106 45.1826 19.6844C45.3954 19.9393 45.6639 20.1419 45.9674 20.2765C46.271 20.4112 46.6014 20.4743 46.9331 20.4609C47.2669 20.4724 47.5988 20.4074 47.9036 20.271C48.2084 20.1346 48.478 19.9303 48.6917 19.6737C49.1502 19.1008 49.3862 18.3815 49.3562 17.6483Z" fill="#2E343F"/>
<path d="M53.7939 20.2608C53.3592 19.4598 53.1403 18.5595 53.1588 17.6483C53.1403 16.7371 53.3592 15.8368 53.7939 15.0358C54.2072 14.2874 54.8331 13.6782 55.5925 13.2853C56.4335 12.8796 57.3552 12.6689 58.289 12.6689C59.2228 12.6689 60.1445 12.8796 60.9855 13.2853C61.7449 13.6782 62.3708 14.2874 62.7841 15.0358C63.2188 15.8368 63.4377 16.7371 63.4192 17.6483C63.4399 18.5631 63.221 19.4674 62.7841 20.2715C62.368 21.0151 61.7426 21.6201 60.9855 22.0113C60.1445 22.417 59.2228 22.6277 58.289 22.6277C57.3552 22.6277 56.4335 22.417 55.5925 22.0113C54.8331 21.6184 54.2072 21.0092 53.7939 20.2608ZM60.7134 17.6483C60.7464 16.9165 60.5143 16.1973 60.0596 15.6229C59.836 15.3783 59.564 15.1829 59.2607 15.0492C58.9575 14.9155 58.6297 14.8464 58.2984 14.8464C57.967 14.8464 57.6392 14.9155 57.336 15.0492C57.0327 15.1829 56.7607 15.3783 56.5371 15.6229C56.0872 16.1992 55.8599 16.9182 55.8967 17.6483C55.8629 18.3798 56.0941 19.099 56.5478 19.6737C56.7713 19.9184 57.0434 20.1138 57.3466 20.2475C57.6499 20.3812 57.9776 20.4502 58.309 20.4502C58.6404 20.4502 58.9682 20.3812 59.2714 20.2475C59.5747 20.1138 59.8467 19.9184 60.0703 19.6737C60.5211 19.0978 60.7494 18.3788 60.7134 17.6483Z" fill="#2E343F"/>
<path d="M67.5634 9.25315V16.9278L71.3874 12.7836H74.3789L70.9098 16.5889L74.5763 22.513H71.4835L69.0231 18.577L67.5634 20.146V22.513H64.8949V9.25315H67.5634Z" fill="#2E343F"/>
<path d="M77.8613 20.3168C78.2921 20.6027 78.8016 20.7464 79.3183 20.7278C79.7784 20.7515 80.237 20.6598 80.6526 20.4609C80.8057 20.3917 80.935 20.2788 81.0242 20.1364C81.1134 19.994 81.1587 19.8284 81.1542 19.6604C81.1624 19.5546 81.1462 19.4484 81.1069 19.3498C81.0676 19.2513 81.0062 19.1631 80.9274 19.092C80.7376 18.9527 80.517 18.8612 80.2843 18.8251C80.0175 18.7691 79.5531 18.7024 78.9207 18.6277C78.1985 18.5409 77.4845 18.3954 76.7859 18.1927C76.2647 18.0428 75.7937 17.7552 75.4223 17.3601C75.0656 16.9381 74.8824 16.3963 74.9099 15.8444C74.903 15.2429 75.0901 14.6552 75.4436 14.1686C75.8161 13.6626 76.3239 13.2722 76.9086 13.0425C77.6008 12.7665 78.3411 12.6313 79.0861 12.6448C80.4115 12.6573 81.4789 12.941 82.2884 13.4961C82.6771 13.7473 82.9996 14.0885 83.2286 14.4908C83.4576 14.893 83.5863 15.3445 83.6039 15.807H81.0689C81.0485 15.6229 80.9859 15.4459 80.8859 15.2899C80.7859 15.134 80.6513 15.0032 80.4925 14.9077C80.0929 14.66 79.628 14.5382 79.1582 14.5582C78.7334 14.5385 78.3114 14.6363 77.9387 14.841C77.7996 14.913 77.6828 15.0217 77.6009 15.1553C77.5191 15.2888 77.4753 15.4422 77.4743 15.5989C77.4683 15.6978 77.4876 15.7965 77.5306 15.8858C77.5736 15.975 77.6388 16.0517 77.7199 16.1086C77.9146 16.2351 78.1337 16.3196 78.363 16.3568C78.6298 16.4048 79.0701 16.4635 79.6972 16.5249C81.0101 16.6779 82.0171 16.959 82.718 17.3681C83.4172 17.7791 83.7667 18.4809 83.7667 19.4789C83.7759 20.0813 83.5792 20.6688 83.209 21.1441C82.8026 21.6486 82.2654 22.0317 81.6559 22.2515C80.9202 22.5238 80.14 22.656 79.3557 22.6411C78.0054 22.6411 76.9077 22.3414 76.0627 21.7418C75.661 21.4689 75.3303 21.104 75.0982 20.6774C74.8661 20.2508 74.7393 19.775 74.7284 19.2895H77.2449C77.263 19.4962 77.3279 19.6962 77.4347 19.8742C77.5415 20.0522 77.6874 20.2035 77.8613 20.3168Z" fill="#2E343F"/>
<path d="M89.9177 22.6278C88.9966 22.6486 88.0851 22.4366 87.2678 22.0114C86.5242 21.6135 85.9151 21.0044 85.5173 20.2608C85.0969 19.4552 84.8858 18.5568 84.9035 17.6483C84.8833 16.737 85.0945 15.8354 85.5173 15.0278C85.9192 14.2857 86.5321 13.6793 87.2785 13.2853C88.1021 12.8591 89.0199 12.6471 89.947 12.6689C91.2475 12.6689 92.3069 13.0006 93.1252 13.6642C93.9623 14.356 94.5043 15.3408 94.6409 16.4181H91.8683C91.7763 15.971 91.5366 15.5679 91.1879 15.2733C90.8299 14.9823 90.3787 14.8307 89.9177 14.8464C89.5986 14.8356 89.2814 14.9003 88.9921 15.0353C88.7027 15.1702 88.4493 15.3715 88.2525 15.6229C87.8154 16.205 87.5946 16.9211 87.6281 17.6483C87.5946 18.3755 87.8154 19.0916 88.2525 19.6737C88.4482 19.9271 88.7011 20.1304 88.9906 20.2673C89.28 20.4041 89.5977 20.4705 89.9177 20.4609C90.3883 20.4775 90.849 20.323 91.2146 20.026C91.5709 19.7189 91.8088 19.297 91.887 18.8331H94.6329C94.5082 19.9223 93.9693 20.9217 93.1279 21.6244C92.3006 22.2933 91.2306 22.6278 89.9177 22.6278Z" fill="#2E343F"/>
<path d="M96.1913 20.2608C95.7567 19.4598 95.5378 18.5595 95.5562 17.6483C95.5378 16.7371 95.7567 15.8368 96.1913 15.0358C96.6047 14.2874 97.2306 13.6782 97.9899 13.2853C98.831 12.8796 99.7527 12.6689 100.686 12.6689C101.62 12.6689 102.542 12.8796 103.383 13.2853C104.142 13.6782 104.768 14.2874 105.182 15.0358C105.616 15.8368 105.835 16.7371 105.817 17.6483C105.837 18.5631 105.618 19.4674 105.182 20.2715C104.769 21.0132 104.148 21.618 103.396 22.0113C102.555 22.417 101.634 22.6277 100.7 22.6277C99.766 22.6277 98.8443 22.417 98.0033 22.0113C97.239 21.6205 96.6082 21.0112 96.1913 20.2608ZM103.111 17.6483C103.144 16.9165 102.912 16.1973 102.457 15.6229C102.233 15.3783 101.961 15.1829 101.658 15.0492C101.355 14.9155 101.027 14.8464 100.696 14.8464C100.364 14.8464 100.037 14.9155 99.7334 15.0492C99.4302 15.1829 99.1581 15.3783 98.9346 15.6229C98.4808 16.1977 98.2497 16.9168 98.2835 17.6483C98.2497 18.3798 98.4808 19.099 98.9346 19.6737C99.1581 19.9184 99.4302 20.1138 99.7334 20.2475C100.037 20.3812 100.364 20.4502 100.696 20.4502C101.027 20.4502 101.355 20.3812 101.658 20.2475C101.961 20.1138 102.233 19.9184 102.457 19.6737C102.913 19.0997 103.146 18.3805 103.113 17.6483H103.111Z" fill="#2E343F"/>
<path d="M116.456 22.513H114.092L113.844 21.3389C113.502 21.763 113.065 22.1007 112.569 22.3246C112.072 22.5485 111.53 22.6524 110.986 22.6278C110.475 22.6473 109.965 22.5643 109.486 22.3837C109.008 22.2032 108.57 21.9287 108.2 21.5764C107.488 20.8772 107.132 19.7066 107.132 18.0646V12.7836H109.801V17.7417C109.801 18.6277 109.956 19.2921 110.265 19.7404C110.426 19.9655 110.642 20.1456 110.893 20.2633C111.143 20.381 111.419 20.4326 111.695 20.4129C111.996 20.4264 112.294 20.3652 112.565 20.2348C112.835 20.1044 113.069 19.9088 113.246 19.6657C113.614 19.1667 113.796 18.4675 113.796 17.5736V12.7836H116.464L116.456 22.513Z" fill="#2E343F"/>
<path d="M117.403 15.0358V12.7836H119.005V10.0537H121.673V12.7836H123.888V15.0358H121.673V19.3055C121.649 19.5703 121.726 19.8345 121.889 20.0446C121.99 20.1294 122.106 20.1931 122.232 20.232C122.357 20.271 122.49 20.2844 122.62 20.2715H124V22.5237H121.809C119.952 22.5237 119.024 21.5959 119.026 19.7404V15.0358H117.403Z" fill="#2E343F"/>
<path d="M17.8564 7.20005L4 15.2V10.4L13.7026 4.80005L17.8564 7.20005Z" fill="#2E343F"/>
<path d="M23.4051 10.4V13.1693L6.4 22.9847L4 21.6V18.9949L21.1385 9.09748L23.4051 10.4Z" fill="#2E343F"/>
<path d="M9.68205 24.8821L23.4051 16.9642V21.6L13.7026 27.2L9.68205 24.8821Z" fill="#2E343F"/>
</svg>
