<svg width="48" height="48" viewBox="0 0 48 48" fill="none" xmlns="http://www.w3.org/2000/svg">
<rect width="48" height="48" rx="24" fill="#437EF7"/>
<path fill-rule="evenodd" clip-rule="evenodd" d="M9.33331 23.9999C9.33331 15.8997 15.8998 9.33325 24 9.33325C32.1002 9.33325 38.6666 15.8997 38.6666 23.9999C38.6666 32.1001 32.1002 38.6666 24 38.6666C15.8998 38.6666 9.33331 32.1001 9.33331 23.9999ZM24 13.3333C24.7364 13.3333 25.3333 13.9302 25.3333 14.6666V19.8518C25.3333 20.5881 24.7364 21.1851 24 21.1851C23.2636 21.1851 22.6666 20.5881 22.6666 19.8518V14.6666C22.6666 13.9302 23.2636 13.3333 24 13.3333ZM33.3333 25.3333C34.0697 25.3333 34.6666 24.7363 34.6666 23.9999C34.6666 23.2635 34.0697 22.6666 33.3333 22.6666H28.1481C27.4117 22.6666 26.8148 23.2635 26.8148 23.9999C26.8148 24.7363 27.4117 25.3333 28.1481 25.3333H33.3333ZM24 26.8147C24.7364 26.8147 25.3333 27.4117 25.3333 28.1481V33.3333C25.3333 34.0696 24.7364 34.6666 24 34.6666C23.2636 34.6666 22.6666 34.0696 22.6666 33.3333V28.1481C22.6666 27.4117 23.2636 26.8147 24 26.8147ZM19.8518 25.3333C20.5882 25.3333 21.1852 24.7363 21.1852 23.9999C21.1852 23.2635 20.5882 22.6666 19.8518 22.6666H14.6666C13.9303 22.6666 13.3333 23.2635 13.3333 23.9999C13.3333 24.7363 13.9303 25.3333 14.6666 25.3333H19.8518Z" fill="white"/>
</svg>
