<svg width="20" height="21" viewBox="0 0 20 21" fill="none" xmlns="http://www.w3.org/2000/svg">
<path d="M10 20.6665C15.5228 20.6665 20 16.1894 20 10.6665C20 5.14366 15.5228 0.666504 10 0.666504C4.47715 0.666504 0 5.14366 0 10.6665C0 16.1894 4.47715 20.6665 10 20.6665Z" fill="#272D37"/>
<path fill-rule="evenodd" clip-rule="evenodd" d="M4.52669 10.561C7.44189 9.29085 9.38582 8.45352 10.3585 8.04896C13.1356 6.89387 13.7126 6.69322 14.0888 6.68659C14.1715 6.68514 14.3564 6.70564 14.4763 6.80286C14.5774 6.88495 14.6053 6.99584 14.6186 7.07367C14.6319 7.1515 14.6485 7.3288 14.6353 7.46734C14.4848 9.04857 13.8336 12.8858 13.5023 14.6568C13.3622 15.4062 13.0861 15.6575 12.8189 15.6821C12.2382 15.7355 11.7972 15.2983 11.2348 14.9296C10.3547 14.3526 9.85744 13.9935 9.00312 13.4305C8.01581 12.7799 8.65584 12.4223 9.21851 11.8379C9.36576 11.6849 11.9244 9.35765 11.9739 9.14653C11.9801 9.12012 11.9859 9.0217 11.9274 8.96973C11.8689 8.91776 11.7826 8.93553 11.7204 8.94966C11.6321 8.9697 10.2261 9.89903 7.50231 11.7376C7.10322 12.0117 6.74173 12.1452 6.41785 12.1382C6.0608 12.1305 5.37398 11.9363 4.86339 11.7704C4.23714 11.5668 3.73941 11.4592 3.78275 11.1134C3.80533 10.9334 4.05331 10.7492 4.52669 10.561Z" fill="white"/>
</svg>
