<svg width="20" height="21" viewBox="0 0 20 21" fill="none" xmlns="http://www.w3.org/2000/svg">
<path d="M6.2896 18.7921C13.8368 18.7921 17.9648 12.5393 17.9648 7.11686C17.9648 6.93926 17.9648 6.76246 17.9528 6.58646C18.7559 6.00559 19.4491 5.28636 20 4.46246C19.2512 4.79446 18.4567 5.01209 17.6432 5.10806C18.4998 4.5953 19.141 3.78871 19.4472 2.83846C18.6417 3.31646 17.7605 3.65331 16.8416 3.83446C16.2229 3.1766 15.4047 2.74099 14.5135 2.59503C13.6223 2.44906 12.7078 2.60088 11.9116 3.027C11.1154 3.45312 10.4819 4.12977 10.109 4.95225C9.73605 5.77473 9.64462 6.69718 9.8488 7.57686C8.21741 7.49502 6.62146 7.07105 5.16455 6.33246C3.70763 5.59387 2.4223 4.55717 1.392 3.28966C0.867274 4.19299 0.70656 5.26235 0.942583 6.28001C1.17861 7.29767 1.79362 8.18712 2.6624 8.76726C2.00936 8.74812 1.37054 8.57195 0.8 8.25366V8.30566C0.800259 9.25303 1.12821 10.1712 1.72823 10.9043C2.32824 11.6374 3.16338 12.1405 4.092 12.3281C3.4879 12.4928 2.85406 12.5169 2.2392 12.3985C2.50151 13.2137 3.01202 13.9267 3.69937 14.4376C4.38671 14.9485 5.21652 15.2319 6.0728 15.2481C5.22203 15.9168 4.24776 16.4112 3.20573 16.7031C2.16369 16.9949 1.07435 17.0784 0 16.9489C1.87653 18.153 4.05994 18.7918 6.2896 18.7889" fill="#272D37"/>
</svg>
